<svg width="120" height="122" viewBox="0 0 120 122" fill="none" xmlns="http://www.w3.org/2000/svg">
<path fill-rule="evenodd" clip-rule="evenodd" d="M33.0937 24.4C27.9562 24.4 24.1574 28.9712 24.3299 33.9236C24.4912 38.6893 24.2812 44.8541 22.7549 49.8828C21.2174 54.9229 18.6299 58.1178 14.3999 58.5295V63.1617C18.6299 63.5696 21.2212 66.7645 22.7512 71.8085C24.2812 76.8371 24.4912 83.002 24.3262 87.7638C24.1574 92.72 27.9562 97.2912 33.0937 97.2912H85.7137C90.8512 97.2912 94.6499 92.72 94.4774 87.7638C94.3162 83.002 94.5262 76.8371 96.0524 71.8085C97.5862 66.7645 100.17 63.5735 104.4 63.1617V58.5295C100.17 58.1178 97.5862 54.9229 96.0524 49.8828C94.5262 44.8503 94.3162 38.6855 94.4774 33.9236C94.6499 28.9674 90.8474 24.4 85.7137 24.4H33.0937ZM75.4124 69.2693C75.4124 76.0937 70.4062 80.2303 62.0999 80.2303H47.9587C47.5539 80.2303 47.1657 80.0668 46.8794 79.7758C46.5932 79.4848 46.4324 79.0901 46.4324 78.6786V43.0088C46.4334 42.598 46.5946 42.2043 46.8808 41.9141C47.1669 41.6239 47.5545 41.461 47.9587 41.461H62.0212C68.9474 41.461 73.4962 45.2735 73.4962 51.1333C73.4962 55.2431 70.4362 58.9222 66.5399 59.5703V59.7838C71.8462 60.3748 75.4124 64.111 75.4124 69.2693ZM60.5624 46.3753H52.4999V57.9576H59.2912C64.5412 57.9576 67.4362 55.8074 67.4362 51.9644C67.4362 48.3654 64.9462 46.3753 60.5624 46.3753ZM52.4999 62.5517V75.3121H60.8624C66.3262 75.3121 69.2249 73.0818 69.2249 68.8919C69.2249 64.6981 66.2474 62.5517 60.5099 62.5517H52.4999Z" fill="white" fill-opacity="0.3"/>
</svg>
