<svg width="121" height="121" viewBox="0 0 121 121" fill="none" xmlns="http://www.w3.org/2000/svg">
<path d="M14.52 14.52V105.27H105.27V14.52H14.52ZM63.9075 85.2953C63.9075 94.1272 58.7218 98.1591 51.1668 98.1591C44.3411 98.1591 40.3903 94.6361 38.3646 90.3611L45.3134 86.1671C46.652 88.5364 47.8674 90.5426 50.8038 90.5426C53.5976 90.5426 55.3802 89.4471 55.3802 85.1754V56.1872H63.9075V85.2953ZM84.0799 98.1591C76.1587 98.1591 71.0346 94.393 68.5422 89.4471L75.4911 85.4379C77.3158 88.4165 79.7044 90.6236 83.8984 90.6236C87.4214 90.6236 89.6934 88.8605 89.6934 86.4102C89.6934 83.4933 87.3825 82.4594 83.4738 80.7383L81.3477 79.8276C75.1896 77.2153 71.1188 73.9127 71.1188 66.9638C71.1188 60.5627 75.9999 55.7011 83.597 55.7011C89.0258 55.7011 92.9151 57.5841 95.7121 62.5268L89.0679 66.7823C87.6094 64.17 86.0278 63.1361 83.5775 63.1361C81.0884 63.1361 79.5067 64.7177 79.5067 66.7823C79.5067 69.3363 81.0884 70.3669 84.754 71.968L86.8802 72.8788C94.1337 75.9772 98.2045 79.1599 98.2045 86.2871C98.2045 93.9457 92.1664 98.1559 84.0831 98.1559L84.0799 98.1591Z" fill="white" fill-opacity="0.3"/>
</svg>
