<svg width="122" height="121" viewBox="0 0 122 121" fill="none" xmlns="http://www.w3.org/2000/svg">
<path d="M17.7281 53.8647L44.1915 27.5728L51.929 35.2924C50.8302 39.1521 52.6158 43.3752 56.1869 45.4186V70.5752C53.4399 72.1191 51.6085 75.0707 51.6085 78.431C51.6085 80.8396 52.5733 83.1496 54.2905 84.8528C56.0077 86.5559 58.3368 87.5128 60.7654 87.5128C63.1939 87.5128 65.523 86.5559 67.2403 84.8528C68.9575 83.1496 69.9222 80.8396 69.9222 78.431C69.9222 75.0707 68.0909 72.1191 65.3438 70.5752V48.5064L74.8212 57.9969C74.5007 58.678 74.5007 59.45 74.5007 60.2673C74.5007 62.676 75.4654 64.986 77.1827 66.6891C78.8999 68.3923 81.229 69.3491 83.6575 69.3491C86.0861 69.3491 88.4152 68.3923 90.1324 66.6891C91.8497 64.986 92.8144 62.676 92.8144 60.2673C92.8144 57.8587 91.8497 55.5487 90.1324 53.8455C88.4152 52.1424 86.0861 51.1855 83.6575 51.1855C82.8334 51.1855 82.0551 51.1855 81.3683 51.5034L69.6018 39.8333C70.1702 37.7301 69.9498 35.4937 68.9815 33.5395C68.0132 31.5853 66.3627 30.046 64.3366 29.2075C62.3678 28.481 60.3075 28.2994 58.4762 28.7989L50.6928 21.1247L54.3098 17.5828C57.881 13.9955 63.6498 13.9955 67.221 17.5828L103.803 53.8647C107.42 57.4066 107.42 63.1281 103.803 66.67L67.221 102.952C63.6498 106.539 57.881 106.539 54.3098 102.952L17.7281 66.67C14.1111 63.1281 14.1111 57.4066 17.7281 53.8647Z" fill="white" fill-opacity="0.3"/>
</svg>
