<svg width="123" height="122" viewBox="0 0 123 122" fill="none" xmlns="http://www.w3.org/2000/svg">
<path d="M60.885 52.4048C65.3044 52.4048 68.9086 55.9797 68.9086 60.4483C68.9086 64.7041 65.3044 68.3216 60.885 68.3216C56.4656 68.3216 52.8614 64.7041 52.8614 60.4483C52.8614 55.9797 56.4656 52.4048 60.885 52.4048ZM41.0191 94.4948C43.7222 96.112 49.6434 93.6437 56.4656 87.2599C54.2344 84.749 52.0462 82.0253 49.9866 79.1739C46.5293 78.8433 43.0919 78.3319 39.689 77.6418C37.5007 86.7493 38.3159 93.0053 41.0191 94.4948ZM44.0655 70.0665L42.8212 67.896C42.3492 69.1302 41.8772 70.3644 41.5769 71.556C42.7354 71.8113 44.0226 72.0241 45.3527 72.2369L44.0655 70.0665ZM72.1266 66.832L75.6021 60.4483L72.1266 54.0646C70.8394 51.809 69.4664 49.8088 68.2221 47.8086C65.9051 47.6809 63.4594 47.6809 60.885 47.6809C58.3106 47.6809 55.8649 47.6809 53.5479 47.8086C52.3036 49.8088 50.9306 51.809 49.6434 54.0646L46.1679 60.4483L49.6434 66.832C50.9306 69.0876 52.3036 71.0879 53.5479 73.0881C55.8649 73.2158 58.3106 73.2158 60.885 73.2158C63.4594 73.2158 65.9051 73.2158 68.2221 73.0881C69.4664 71.0879 70.8394 69.0876 72.1266 66.832ZM60.885 38.233C60.0698 39.1693 59.2116 40.1481 58.3535 41.2972H63.4165C62.5584 40.1481 61.7002 39.1693 60.885 38.233ZM60.885 82.6637C61.7002 81.7274 62.5584 80.7486 63.4165 79.5995H58.3535C59.2116 80.7486 60.0698 81.7274 60.885 82.6637ZM80.708 26.4018C78.0478 24.7846 72.1266 27.253 65.3044 33.6367C67.5356 36.1476 69.7238 38.8713 71.7834 41.7227C75.3018 42.0632 78.7772 42.5739 82.0811 43.2548C84.2693 34.1474 83.4541 27.8913 80.708 26.4018ZM77.7045 50.8302L78.9488 53.0006C79.4208 51.7665 79.8928 50.5323 80.1931 49.3407C79.0347 49.0853 77.7474 48.8725 76.4173 48.6597L77.7045 50.8302ZM83.9261 20.8267C90.2334 24.4016 90.9199 33.8069 88.2597 44.7869C99.158 47.9788 107.01 53.256 107.01 60.4483C107.01 67.6406 99.158 72.9179 88.2597 76.1097C90.9199 87.0897 90.2334 96.4951 83.9261 100.07C77.6616 103.645 69.1231 99.5593 60.885 91.7711C52.6469 99.5593 44.1084 103.645 37.8011 100.07C31.5366 96.4951 30.8501 87.0897 33.5104 76.1097C22.612 72.9179 14.76 67.6406 14.76 60.4483C14.76 53.256 22.612 47.9788 33.5104 44.7869C30.8501 33.8069 31.5366 24.4016 37.8011 20.8267C44.1084 17.2518 52.6469 21.3374 60.885 29.1255C69.1231 21.3374 77.6616 17.2518 83.9261 20.8267ZM82.6818 60.4483C84.1406 63.6402 85.4278 66.832 86.5005 70.0665C95.5109 67.3853 100.574 63.5551 100.574 60.4483C100.574 57.3416 95.5109 53.5113 86.5005 50.8302C85.4278 54.0646 84.1406 57.2565 82.6818 60.4483ZM39.0883 60.4483C37.6294 57.2565 36.3422 54.0646 35.2695 50.8302C26.2591 53.5113 21.1961 57.3416 21.1961 60.4483C21.1961 63.5551 26.2591 67.3853 35.2695 70.0665C36.3422 66.832 37.6294 63.6402 39.0883 60.4483ZM77.7045 70.0665L76.4173 72.2369C77.7474 72.0241 79.0347 71.8113 80.1931 71.556C79.8928 70.3644 79.4208 69.1302 78.9488 67.896L77.7045 70.0665ZM65.3044 87.2599C72.1266 93.6437 78.0478 96.112 80.708 94.4948C83.4541 93.0053 84.2693 86.7493 82.0811 77.6418C78.7772 78.3227 75.3018 78.8334 71.7834 79.1739C69.7238 82.0253 67.5356 84.749 65.3044 87.2599ZM44.0655 50.8302L45.3527 48.6597C44.0226 48.8725 42.7354 49.0853 41.5769 49.3407C41.8772 50.5323 42.3492 51.7665 42.8212 53.0006L44.0655 50.8302ZM56.4656 33.6367C49.6434 27.253 43.7222 24.7846 41.0191 26.4018C38.3159 27.8913 37.5007 34.1474 39.689 43.2548C43.0919 42.5647 46.5293 42.0533 49.9866 41.7227C52.0462 38.8713 54.2344 36.1476 56.4656 33.6367Z" fill="white" fill-opacity="0.3"/>
</svg>
