<svg width="122" height="121" viewBox="0 0 122 121" fill="none" xmlns="http://www.w3.org/2000/svg">
<path d="M85.4341 15.3873H36.9184C25.0973 15.3873 15.5144 24.8917 15.5144 36.6159V84.7339C15.5144 96.4581 25.0973 105.962 36.9184 105.962H85.4341C97.2552 105.962 106.838 96.4581 106.838 84.7339V36.6159C106.838 24.8917 97.2552 15.3873 85.4341 15.3873Z" fill="white" fill-opacity="0.3"/>
<mask id="mask0_229_645" style="mask-type:luminance" maskUnits="userSpaceOnUse" x="25" y="34" width="72" height="54">
<path d="M25.5029 34.1392H96.8496V87.1783H25.5029V34.1392Z" fill="white"/>
</mask>
<g mask="url(#mask0_229_645)">
<path d="M86.8983 64.6236C84.4105 64.6364 82.2487 65.2308 80.4383 66.1089C79.774 64.8044 79.1098 63.6418 78.9924 62.7891C78.8622 61.7946 78.706 61.1874 78.8622 59.999C79.0185 58.8105 79.7219 57.1186 79.7087 56.9895C79.6955 56.8603 79.5525 56.2532 78.1199 56.2401C76.6872 56.227 75.4501 56.5115 75.3067 56.8862C75.1633 57.2605 74.89 58.1132 74.7077 58.9917C74.4601 60.2834 71.8421 64.895 70.3445 67.3104C69.8626 66.3675 69.4459 65.5407 69.3546 64.8819C69.2244 63.8873 69.0681 63.2802 69.2244 62.0918C69.3806 60.9033 70.0841 59.211 70.0709 59.0819C70.0577 58.9528 69.9146 58.3456 68.482 58.3329C67.0494 58.3202 65.8118 58.6039 65.6688 58.9786C65.5254 59.3533 65.3691 60.2318 65.0695 61.0841C64.7702 61.9368 61.2928 69.6357 60.3809 71.6248C60.0126 72.4298 59.6261 73.2265 59.2219 74.0144C59.2219 74.0144 59.2087 74.0533 59.1698 74.1177C59.0427 74.3648 58.9124 74.6103 58.7789 74.854V74.8671C58.5837 75.216 58.375 75.5386 58.2709 75.5386C58.1927 75.5386 58.0497 74.6088 58.2969 73.3429C58.8181 70.6688 60.0552 66.5094 60.0424 66.3675C60.0424 66.2901 60.2768 65.5665 59.2348 65.1918C58.2188 64.8172 57.8542 65.4374 57.7629 65.4374C57.6719 65.4374 57.6066 65.6571 57.6066 65.6571C57.6066 65.6571 58.74 60.9808 55.4448 60.9808C53.3868 60.9808 50.5476 63.2155 49.1413 65.2308C47.5422 66.0937 45.9444 66.9592 44.3479 67.827C43.5799 68.2533 42.7854 68.6797 42.0427 69.0802C41.9906 69.0285 41.9385 68.9638 41.8865 68.9121C37.901 64.688 30.5295 61.7043 30.842 56.0335C30.9594 53.9665 31.6757 48.5412 44.9993 41.9533C55.9657 36.5927 64.6921 38.078 66.2028 41.372C68.3646 46.0741 61.5271 54.8061 50.1962 56.0721C45.8719 56.55 43.6059 54.8967 43.033 54.2768C42.4337 53.6308 42.3424 53.5922 42.1208 53.7213C41.7563 53.9149 41.9906 54.4962 42.1208 54.832C42.4597 55.7105 43.8531 57.2605 46.2104 58.0226C48.2945 58.6945 53.3608 59.0692 59.4952 56.7181C66.3591 54.0829 71.7251 46.7584 70.149 40.623C68.5733 34.3966 58.1539 32.3428 48.2945 35.8175C42.4333 37.8845 36.0778 41.1395 31.5062 45.3764C26.075 50.4146 25.2156 54.7934 25.5674 56.6275C26.8305 63.138 35.8823 67.3748 39.5031 70.5138C39.3208 70.6171 39.1514 70.7077 39.0083 70.7852C37.1979 71.6765 30.2951 75.2545 28.5757 79.0396C26.6222 83.3281 28.8885 86.4023 30.3861 86.8156C35.0358 88.0946 39.8156 85.7952 42.3816 81.9974C44.9476 78.1996 44.6347 73.2654 43.4493 71.0049C43.4364 70.9764 43.4188 70.9502 43.3972 70.9274C43.8663 70.6561 44.3479 70.372 44.817 70.1006C45.679 69.5955 46.5517 69.1087 47.4347 68.6408C46.992 69.8423 46.6663 71.2759 46.5101 73.3429C46.315 75.7714 47.3177 78.9232 48.633 80.1633C49.2191 80.7057 49.9094 80.7188 50.3525 80.7188C51.8893 80.7188 52.5795 79.4528 53.3479 77.9544C54.2854 76.1199 55.1323 73.9886 55.1323 73.9886C55.1323 73.9886 54.0771 79.75 56.9424 79.75C57.9844 79.75 59.0393 78.4066 59.5084 77.722V77.7347C59.5084 77.7347 59.5344 77.6962 59.5865 77.6056C59.6907 77.4375 59.7556 77.3342 59.7556 77.3342V77.3084C60.1726 76.5852 61.1101 74.9446 62.5039 72.2188C64.3011 68.7055 66.0334 64.3137 66.0334 64.3137C66.0334 64.3137 66.1896 65.3857 66.7237 67.1682C67.0362 68.2148 67.6875 69.3643 68.2084 70.4753C67.7917 71.0566 67.5313 71.3793 67.5313 71.3793L67.5441 71.3923C67.2056 71.8314 66.841 72.3094 66.4372 72.7743C65.0174 74.4539 63.3243 76.3786 63.09 76.9341C62.8164 77.5928 62.8816 78.0705 63.4025 78.4583C63.7802 78.7424 64.4573 78.7809 65.1476 78.7424C66.424 78.6518 67.323 78.3419 67.7657 78.148C68.456 77.9028 69.2636 77.5281 70.0188 76.9726C71.4126 75.9522 72.2591 74.4924 72.181 72.5677C72.1417 71.5084 71.79 70.4494 71.3605 69.4545C71.4907 69.2737 71.6077 69.0929 71.7379 68.9121C73.9393 65.7215 75.6452 62.2209 75.6452 62.2209C75.6452 62.2209 75.8014 63.2929 76.3355 65.0758C76.5959 65.9798 77.1299 66.9616 77.599 67.9176C75.5282 69.584 74.2518 71.5215 73.7959 72.7874C72.9754 75.1385 73.6136 76.1974 74.8247 76.443C75.3719 76.5594 76.1532 76.3011 76.7265 76.0555C77.4556 75.8231 78.3153 75.4226 79.1358 74.8282C80.5292 73.8078 81.8709 72.3869 81.7928 70.4622C81.7535 69.584 81.5192 68.7183 81.1935 67.8787C82.9518 67.1555 85.2181 66.755 88.1095 67.0907C94.3091 67.8143 95.5334 71.6506 95.2987 73.2654C95.0643 74.8798 93.7619 75.7583 93.332 76.0297C92.9025 76.3011 92.7591 76.3913 92.7984 76.5852C92.8504 76.8693 93.0588 76.8562 93.4233 76.8046C93.9313 76.7143 96.6793 75.5001 96.7966 72.5291C96.9921 68.7313 93.3452 64.5847 86.8983 64.6236ZM39.0733 80.6154C37.0156 82.837 34.1504 83.677 32.9128 82.9665C31.5844 82.204 32.1052 78.9232 34.6323 76.5721C36.1687 75.1385 38.1486 73.8078 39.4639 72.994C39.7635 72.8132 40.2063 72.555 40.7403 72.2319C40.8316 72.1803 40.8837 72.1544 40.8837 72.1544L41.1962 71.9606C42.1208 75.3193 41.2351 78.2775 39.0733 80.6154ZM54.0514 70.5138C53.3351 72.245 51.8375 76.6754 50.9257 76.4302C50.1445 76.2233 49.6625 72.8649 50.7695 69.5451C51.3296 67.8787 52.5146 65.8895 53.2049 65.1144C54.325 63.8743 55.5622 63.461 55.8618 63.9648C56.2396 64.6236 54.4945 69.4287 54.0514 70.5138ZM66.4115 76.3786C66.1119 76.5335 65.8254 76.6369 65.6952 76.5594C65.6039 76.5077 65.8254 76.3011 65.8254 76.3011C65.8254 76.3011 67.3754 74.6474 67.9876 73.8984C68.3389 73.4589 68.756 72.9424 69.1987 72.3611V72.5291C69.1987 74.5055 67.2712 75.8358 66.4115 76.3786ZM75.9452 74.221C75.7237 74.0661 75.7629 73.5495 76.5053 71.9347C76.7917 71.3018 77.4692 70.2428 78.6282 69.2221C78.7584 69.6357 78.8497 70.0358 78.8365 70.4105C78.8237 72.9038 77.0261 73.8336 75.9452 74.221Z" fill="black"/>
</g>
</svg>
