<svg width="120" height="122" viewBox="0 0 120 122" fill="none" xmlns="http://www.w3.org/2000/svg">
<path d="M59.3999 32.9399C47.3849 32.9399 39.9149 39.0247 36.8999 51.2399C41.3999 45.1552 46.6649 42.8677 52.6499 44.3774C56.0699 45.2467 58.5449 47.7629 61.2449 50.5537C65.6549 55.1287 70.6499 60.3899 81.8999 60.3899C93.9149 60.3899 101.385 54.3052 104.4 42.0899C99.8999 48.1747 94.6349 50.4622 88.6499 48.9524C85.2299 48.0832 82.7999 45.5669 80.0549 42.7762C75.6449 38.2012 70.6499 32.9399 59.3999 32.9399ZM36.8999 60.3899C24.8849 60.3899 17.4149 66.4747 14.3999 78.6899C18.8999 72.6052 24.1649 70.3177 30.1499 71.8274C33.5699 72.6967 35.9999 75.2129 38.7449 78.0037C43.1549 82.5787 48.1499 87.8399 59.3999 87.8399C71.4149 87.8399 78.8849 81.7552 81.8999 69.5399C77.3999 75.6247 72.1349 77.9122 66.1499 76.4024C62.7299 75.5332 60.2999 73.0169 57.5549 70.2262C53.1449 65.6512 48.1499 60.3899 36.8999 60.3899Z" fill="white" fill-opacity="0.3"/>
</svg>
