<svg width="121" height="121" viewBox="0 0 121 121" fill="none" xmlns="http://www.w3.org/2000/svg">
<mask id="mask0_229_626" style="mask-type:luminance" maskUnits="userSpaceOnUse" x="14" y="14" width="92" height="92">
<path d="M14.52 14.52H105.27V105.27H14.52V14.52Z" fill="white"/>
</mask>
<g mask="url(#mask0_229_626)">
<path d="M103.111 14.52H16.6753C16.392 14.52 16.1114 14.5759 15.8497 14.6845C15.5879 14.793 15.3501 14.9521 15.15 15.1526C14.9498 15.3532 14.7911 15.5912 14.683 15.8532C14.5749 16.1151 14.5195 16.3958 14.52 16.6791V103.115C14.5195 103.398 14.575 103.679 14.6834 103.942C14.7917 104.204 14.9507 104.442 15.1513 104.643C15.3519 104.843 15.5901 105.002 15.8523 105.11C16.1145 105.219 16.3954 105.274 16.6791 105.274H103.115C103.398 105.274 103.679 105.219 103.942 105.11C104.204 105.002 104.442 104.843 104.643 104.643C104.843 104.442 105.002 104.204 105.11 103.942C105.219 103.679 105.274 103.398 105.274 103.115V16.6753C105.274 16.3917 105.218 16.1108 105.109 15.8488C105 15.5868 104.841 15.3489 104.64 15.1486C104.439 14.9484 104.2 14.7898 103.938 14.6819C103.676 14.5741 103.395 14.519 103.111 14.52ZM68.539 63.0183H57.7359V96.6261H49.092V63.0183H38.289V55.5731H68.539V63.0183ZM70.959 94.7052V85.7248C70.959 85.7248 75.867 89.4228 81.7544 89.4228C87.6418 89.4228 87.415 85.5735 87.415 85.0441C87.415 79.4592 70.7321 79.4592 70.7321 67.0794C70.7321 50.2453 95.0417 56.8889 95.0417 56.8889L94.7392 64.8901C94.7392 64.8901 90.6631 62.1713 86.0575 62.1713C81.4519 62.1713 79.792 64.3645 79.792 66.7013C79.792 72.7399 96.6261 72.1387 96.6261 84.2917C96.6261 103.009 70.959 94.709 70.959 94.709" fill="white" fill-opacity="0.3"/>
</g>
</svg>
